<svg id="Livello_1" data-name="Livello 1" xmlns="http://www.w3.org/2000/svg" viewBox="0 0 3841 2161"><defs><style>.cls-1,.cls-2,.cls-22,.cls-3{fill:#3b3538;}.cls-13,.cls-2,.cls-4{stroke:#1d1d1b;}.cls-10,.cls-11,.cls-12,.cls-13,.cls-2,.cls-21,.cls-22,.cls-23,.cls-3,.cls-4,.cls-5,.cls-6,.cls-7,.cls-9{stroke-miterlimit:10;}.cls-3,.cls-5{stroke:#c9be9e;}.cls-3,.cls-5,.cls-6,.cls-7{stroke-width:35px;}.cls-11,.cls-4,.cls-6,.cls-7{fill:#443f3e;}.cls-5,.cls-8,.cls-9{fill:none;}.cls-11,.cls-22,.cls-23,.cls-6{stroke:#aa7f3c;}.cls-7{stroke:#bb9753;}.cls-9{stroke:#b2b0a1;}.cls-10{font-size:500px;stroke-width:4px;}.cls-10,.cls-12,.cls-13{fill:#fff;font-family:Copperplate-Light, Copperplate;font-weight:300;}.cls-10,.cls-12{stroke:#000;}.cls-11{stroke-width:7px;}.cls-12{font-size:150px;stroke-width:3px;}.cls-13{font-size:40px;}.cls-14{fill:#a87f3f;}.cls-15{fill:#a97f3c;}.cls-16{fill:#a4824a;}.cls-17{fill:#a97f3e;}.cls-18{fill:#a97f3f;}.cls-19{fill:#a97f3d;}.cls-20{fill:#a3834e;}.cls-21,.cls-23{fill:#aa7f3c;}.cls-21{stroke:#fff;}.cls-21,.cls-22,.cls-23{stroke-width:1.95px;}</style></defs><path class="cls-1" d="M1220.79,1967.69h-1100V134.35h1100Zm-465-1082.78c-.8-4.24-1.14-5.41-1.23-6.58-2.66-32.7-5-65.45-8-98.12q-8.82-97.51-18.39-195c-.33-3.49-4.37-6.62-6.69-9.91-2.13,3.12-5.85,6.06-6.18,9.42C706,659.8,694.86,734.87,688.73,810.15c-6.45,79.32-7.92,159-11.86,238.55a69,69,0,0,1-4.75,20.53c-26.76,70.9-71.76,130.68-117,190.22a61.52,61.52,0,0,1-33.15,22.72c-16.23,4.65-32.51,9.19-48.53,14.53-48.76,16.25-78.24,50.93-92.11,99.24a84.9,84.9,0,0,0,88.76,108.48c33.82-2.73,61.86-18.18,85.48-42.25,2.38-2.42,6.54-5.3,9.25-4.78,10,1.95,14.39-4.11,18.27-11.11,4.29-7.8,4.92-15.12-2.16-22.24-2.25-2.28-3.14-6.59-3.38-10.06-.93-13.22-.35-26.62-2.16-39.71-4.12-29.94-7.8-59.72,8.25-87.47,9.22-16,19.33-31.58,29.6-47,22.08-33,52.8-55.13,89.29-69.65a12.37,12.37,0,0,1,10.24.92c14.9,11.37,28.18,24.75,34.76,42.52,9.22,24.89,16.56,50.49,25,75.67,11.14,33.16,5,62.18-17.2,89.19A120,120,0,0,0,728,1440.15c-4.68,37.06,6.59,88,60.11,107.27,6.42,2.32,12.64,5.21,19.14,7.22,10.68,3.31,16.61,10.84,20,20.95,1.42,4.31,2.71,8.68,3.9,13.06,8.6,33.55,29.88,57.83,57,77.71a45.52,45.52,0,0,0,11.37,5.42c7.16,2.59,13.65,1.36,18-5.27s3.14-13.14-1.54-19c-2.21-2.73-5.4-4.64-7.92-7.15-11.47-11.41-24.2-21.91-33.8-34.74-6-8-8.91-19.39-10.06-29.61-1.72-15.15,6.57-28,14.19-40.58,7.81-13,16.93-25.57,23.29-39.32,21.46-46.13,10.9-95.57-27.3-128.34a267.06,267.06,0,0,0-39-27.3c-15.86-9.3-23.89-22.59-27.89-40.1-6.55-28.79-12.52-57.94-22.22-85.82-16.5-47.37-24.16-95.56-21.59-145.53a57.36,57.36,0,0,1,3.55-17.89c49.87-124,92.39-250.48,129.57-378.79,5.32-18.4,10.06-37.06,14.41-55.65.84-3.62-.14-10.24-2.5-11.58-5.85-3.38-8,2.86-10.49,6.92-.33.57-.66,1.11-1,1.7q-58,109.85-115.91,219.71C773.05,849.55,765.25,866,755.79,884.91Z" transform="translate(0.5 0.45)"/><rect class="cls-2" x="0.5" y="0.5" width="3840" height="2160"/><polyline class="cls-3" points="121.4 495.11 121.4 375.17 121.4 294.45 957.22 294.45 3719.6 294.45 3719.6 375.17 3719.6 495.11"/><path class="cls-4" d="M231.55,775.58" transform="translate(0.5 0.45)"/><rect class="cls-1" x="1237.55" y="201.82" width="215.66" height="192.96"/><polyline class="cls-5" points="3719.47 1665.72 3719.61 1783.31 3719.71 1862.46 2883.89 1863.45 121.53 1866.72 121.43 1787.58 121.29 1669.98"/><rect class="cls-1" x="1237.55" y="1766.22" width="215.66" height="192.96"/><polygon class="cls-6" points="1345.38 1959.18 1345.38 306.78 1345.38 201.81 1345.38 1959.18"/><path class="cls-5" d="M298.8,0" transform="translate(0.5 0.45)"/><path class="cls-5" d="M298.8,2160" transform="translate(0.5 0.45)"/><path class="cls-5" d="M298.8,0" transform="translate(0.5 0.45)"/><path class="cls-5" d="M298.8,2160" transform="translate(0.5 0.45)"/><path class="cls-5" d="M298.8,2160" transform="translate(0.5 0.45)"/><path class="cls-5" d="M298.8,2160" transform="translate(0.5 0.45)"/><path class="cls-5" d="M0,201.36" transform="translate(0.5 0.45)"/><path class="cls-5" d="M0,1762" transform="translate(0.5 0.45)"/><path class="cls-5" d="M298.8,0" transform="translate(0.5 0.45)"/><path class="cls-5" d="M298.8,2160" transform="translate(0.5 0.45)"/><path class="cls-5" d="M298.8,2160" transform="translate(0.5 0.45)"/><path class="cls-5" d="M756.92,1950.58" transform="translate(0.5 0.45)"/><path class="cls-7" d="M0,297.84" transform="translate(0.5 0.45)"/><path class="cls-7" d="M0,1661.46" transform="translate(0.5 0.45)"/><path class="cls-7" d="M120.9,294" transform="translate(0.5 0.45)"/><path class="cls-5" d="M1237.05,297.84" transform="translate(0.5 0.45)"/><path class="cls-5" d="M1452.71,297.84" transform="translate(0.5 0.45)"/><path class="cls-5" d="M1452.71,1866.27" transform="translate(0.5 0.45)"/><path class="cls-5" d="M1237.05,1866.27" transform="translate(0.5 0.45)"/><path class="cls-4" d="M1344.88,201.36" transform="translate(0.5 0.45)"/><path class="cls-4" d="M1344.88,1958.73" transform="translate(0.5 0.45)"/><path class="cls-4" d="M121,1866.27" transform="translate(0.5 0.45)"/><path class="cls-4" d="M120.9,294" transform="translate(0.5 0.45)"/><path class="cls-4" d="M1344.88,931.59" transform="translate(0.5 0.45)"/><rect class="cls-8" x="1345.38" y="294.45" width="2374.33" height="1568.01"/><path class="cls-9" d="M3410.73,1078" transform="translate(0.5 0.45)"/><path class="cls-9" d="M1653.36,1078" transform="translate(0.5 0.45)"/><path class="cls-9" d="M2532,1078" transform="translate(0.5 0.45)"/><text class="cls-10" transform="translate(1675.57 969.24)">PHILIA</text><path class="cls-4" d="M1653.36,1078" transform="translate(0.5 0.45)"/><path class="cls-4" d="M2894.52,1078" transform="translate(0.5 0.45)"/><path class="cls-4" d="M1564.45,1078" transform="translate(0.5 0.45)"/><path class="cls-4" d="M2894.52,1078" transform="translate(0.5 0.45)"/><path class="cls-11" d="M2894.52,1078" transform="translate(0.5 0.45)"/><path class="cls-11" d="M2894.52,1078" transform="translate(0.5 0.45)"/><path class="cls-11" d="M2894.52,1078" transform="translate(0.5 0.45)"/><path class="cls-11" d="M1564.45,1078" transform="translate(0.5 0.45)"/><path class="cls-11" d="M1564.45,1078" transform="translate(0.5 0.45)"/><path class="cls-11" d="M2894.52,1078" transform="translate(0.5 0.45)"/><path class="cls-4" d="M1564.45,1078" transform="translate(0.5 0.45)"/><path class="cls-4" d="M2894.52,1078" transform="translate(0.5 0.45)"/><path class="cls-4" d="M1564.45,1078" transform="translate(0.5 0.45)"/><path class="cls-4" d="M2894.52,1078" transform="translate(0.5 0.45)"/><line class="cls-11" x1="2218.63" y1="1173.26" x2="1563.52" y2="1173.26"/><line class="cls-11" x1="2853.21" y1="1173.26" x2="3508.32" y2="1173.26"/><path class="cls-11" d="M1344.88,1080.05" transform="translate(0.5 0.45)"/><path class="cls-11" d="M3719.1,1078" transform="translate(0.5 0.45)"/><path class="cls-11" d="M3719.1,1078" transform="translate(0.5 0.45)"/><path class="cls-11" d="M1344.88,1080.05" transform="translate(0.5 0.45)"/><path class="cls-11" d="M3719.1,1078" transform="translate(0.5 0.45)"/><path class="cls-4" d="M1344.88,1080.05" transform="translate(0.5 0.45)"/><path class="cls-8" d="M3234.16,1082.24" transform="translate(0.5 0.45)"/><path class="cls-8" d="M1928.17,1078" transform="translate(0.5 0.45)"/><text class="cls-12" transform="translate(1766.78 1386.06)">MEN HAIR CONCEPT</text><text class="cls-13" transform="translate(1563.52 1209.47)">SINCE 2012</text><ellipse class="cls-1" cx="2539.96" cy="1167.37" rx="400" ry="133.53"/><path class="cls-14" d="M2441.94,1170.36a6.9,6.9,0,0,0,2.5-.79,27.85,27.85,0,0,1,6.09-2,19.51,19.51,0,0,1,2.41-.53,1,1,0,0,0,.7-.47,15.32,15.32,0,0,1,5.55-4.42,11.25,11.25,0,0,1,2.71-.86,27.85,27.85,0,0,1,7.63,0,8.51,8.51,0,0,1,1.73.26,2.49,2.49,0,0,1,1.91,2.28,2.12,2.12,0,0,1-.8,1.49,10.8,10.8,0,0,1-1,.81c-.29.24-.61.45-.88.7s-.86.87-1.38,1.39a5.17,5.17,0,0,0,1.53-.7c2.49-1.33,5-2.78,7.48-4s5.23-2.71,7.8-4.12c2.81-1.55,5.71-3,8.4-4.72,2.07-1.25,4.1-2.55,6.15-3.82,2.43-1.5,4.83-3.09,7.23-4.63,1.5-1,3-1.92,4.4-3a37,37,0,0,0,2.94-2.8c1.7-1.64,3.35-3.33,5.11-4.91,2.28-2,4.27-4.28,6.49-6.32,3.08-2.86,6-5.84,9.13-8.69,1.51-1.38,3-2.73,4.56-4.1,1.7-1.57,3.53-3,5.31-4.47,2.12-1.76,4.17-3.61,6.34-5.31,1.87-1.46,3.69-3,5.59-4.36a30.08,30.08,0,0,0,3.23-2.73,3.62,3.62,0,0,1,.42-.36c.38-.29.66-.31.92-.07s.22.54-.1.93-.43.46-.65.7c-1.72,1.81-3.49,3.56-5.16,5.41-4.24,4.6-8.8,8.89-13.3,13.26-3.13,3-6.37,5.94-9.61,8.85-1.63,1.47-3.43,2.82-5.07,4.25s-3.42,3-5.3,4.31c-1.32,1-2.59,1.94-3.86,2.94s-2.12,2-3.17,3c-2.69,2.61-5.41,5.18-8.1,7.78-1,1-2,2-3,3-2,2-3.95,3.92-5.89,5.92-2.28,2.39-4.56,4.85-6.84,7.23-1.34,1.37-2.75,2.67-4.14,4-.53.49-1.14.91-1.67,1.35a1.6,1.6,0,0,0-.42.51,10.11,10.11,0,0,1,2.77,1.33,2.08,2.08,0,0,0,2.71-.27,8.42,8.42,0,0,1,1.7-1.14.88.88,0,0,1,.35-.17c.31,0,.62-.07.75.27a.59.59,0,0,1-.19.82l0,0c-.87.52-1.61,1.22-2.48,1.72a3.63,3.63,0,0,1-3.42.07,2.92,2.92,0,0,1-.61-.37c-1-.84-2.12-.51-3.24-.16a10.69,10.69,0,0,0-3.9,2.92,13.58,13.58,0,0,1-2.1,1.83,1.14,1.14,0,0,1-1.56-.24,1,1,0,0,1,0-1.34,7.82,7.82,0,0,1,1.63-1.72c1.53-1.28,3-2.63,4.44-4a38.52,38.52,0,0,1,3.15-2.69,33.85,33.85,0,0,0,3.42-3.14c3-3,5.9-6,8.76-9.13,1.14-1.22,2.36-2.36,3.55-3.52,1.48-1.45,2.94-2.92,4.32-4.48.07-.08.16-.13.13-.27s-.27-.08-.4,0l-2.69,1.71c-1.51,1-3.05,1.92-4.57,2.9s-3.42,2.09-5.1,3.09c-1.92,1.14-3.9,2.16-5.83,3.26s-3.68,2.12-5.55,3.08c-1.28.67-2.56,1.29-3.81,2-3.25,1.79-6.53,3.54-9.72,5.44-3,1.78-5.83,3.66-8.78,5.47a12.52,12.52,0,0,1-4.74,1.68,2.2,2.2,0,0,0-1,.36,10.44,10.44,0,0,1-4.15,1.7,6.89,6.89,0,0,1-1.28.09,1.87,1.87,0,0,1-1.83-1.74,5.06,5.06,0,0,1,.94-3.61,12.23,12.23,0,0,1,2.17-2.43,23.11,23.11,0,0,0,1.95-1.76,3,3,0,0,0,.6-1.44.71.71,0,0,0-.69-.06,33.52,33.52,0,0,0-7.32,2.32c-1.6.71-3.23,1.35-4.84,2a45,45,0,0,0-5.27,2.79,48.26,48.26,0,0,0-4.95,3.85q-2.37,1.88-4.71,3.79a35,35,0,0,1-4.16,2.77c-.88.55-1.69,1.14-2.59,1.71a2.11,2.11,0,0,1-1.14.31,1,1,0,0,1-1.05-1,1,1,0,0,1,.12-.52,2.28,2.28,0,0,1,.8-.86c1.06-.8,2.12-1.59,3.19-2.36,1.29-.94,2.51-2,3.87-2.8.83-.5,1.66-1,2.49-1.55a32.18,32.18,0,0,0,3.18-2.51c1.53-1.23,3-2.49,4.57-3.66,3.73-2.78,7.69-5.19,11.53-7.8,1.44-1,2.94-1.89,4.36-2.92,2.51-1.82,5-3.72,7.3-5.76a38,38,0,0,0,7.51-8.82,6.83,6.83,0,0,0,1-3.07,6.18,6.18,0,0,0-.7-3.53,1.48,1.48,0,0,0-1.35-.81,11.72,11.72,0,0,0-5.26,1,92.1,92.1,0,0,0-8.45,4,72.19,72.19,0,0,0-7.22,4.33c-1.75,1.2-3.5,2.41-5.36,3.43a6.59,6.59,0,0,1-2,.83,5.21,5.21,0,0,1-.55.08,1,1,0,0,1-1.14-.64,1.26,1.26,0,0,1,.18-1.35,17.55,17.55,0,0,1,3.29-3.21c1.41-1,2.68-2.16,4-3.26q4-3.29,8-6.61c1.3-1.09,2.59-2.18,4-3.22,1.62-1.24,3.15-2.6,4.72-3.9l4.8-3.93c1.61-1.3,3.43-2.81,5.25-4.15,1.51-1.14,2.93-2.35,4.57-3.42a31.05,31.05,0,0,0,2.91-2.22c1.82-1.5,3.73-2.89,5.48-4.47.76-.67,1.49-1.37,2.28-2a22.94,22.94,0,0,0,1.88-1.35,1.48,1.48,0,0,1,.54-.17,1.5,1.5,0,0,1,0,1.14,5.5,5.5,0,0,1-1.23,2.37,45.75,45.75,0,0,1-5.37,4.86c-1.46,1.14-2.82,2.45-4.37,3.43-2.28,1.49-4.37,3.26-6.54,4.91s-4.41,3.56-6.62,5.37l-4.79,3.92c-2.28,1.83-4.56,3.58-6.7,5.52-1.2,1.14-2.56,2.06-3.84,3.08-.76.63-1.49,1.28-2.28,1.92a.48.48,0,0,1-.09.26,2.29,2.29,0,0,0,1.24-.5c2.09-1.22,4.23-2.28,6.4-3.42,1.14-.56,2.36-1.09,3.53-1.66,1.44-.72,3-1.27,4.47-1.87a5.52,5.52,0,0,1,1-.25,21.08,21.08,0,0,1,2.36-.38c1.86-.06,3.22.5,3.85,2.48a8.64,8.64,0,0,1-.92,7.54c-.66,1-1.25,2.15-2,3.19a32.37,32.37,0,0,1-4.17,4.89,84.37,84.37,0,0,1-7.67,6.47c-1.21.9-2.37,1.87-3.66,2.66-1.62,1-3.16,2.13-4.76,3.19A5.74,5.74,0,0,0,2441.94,1170.36Z" transform="translate(0.5 0.45)"/><path class="cls-15" d="M2760.64,1200.51c-.21.26-.54.2-.8.29-1.14.36-2.28.51-3.31.81-1.37.39-2.75.72-4.12,1.15-.91.26-1.83.47-2.76.7l-3.77.9c-1.59.38-3.2.72-4.8,1.14-2,.47-4.08.85-6.12,1.31-1,.22-2,.38-2.95.61-1.79.42-3.6.59-5.38,1s-3.74.77-5.63,1.14c-1.34.24-2.7.54-4.05.8-1.14.23-2.28.44-3.42.64s-2.28.34-3.42.61a14,14,0,0,1-1.57.28c-1.68.21-3.34.62-5,.87-1.15.17-2.29.4-3.43.52s-2.5.45-3.76.61-2.62.43-3.93.64-2.58.32-3.84.61a8.36,8.36,0,0,1-1.5.23c-1.4.12-2.79.39-4.18.58s-2.63.37-3.93.6q-1,.18-2,.27c-1.51.12-3,.38-4.5.58s-3.06.29-4.56.5-3.05.45-4.57.61c-2,.19-4,.55-6,.81-1.55.21-3.11.39-4.66.58-.71.09-1.42.21-2.14.29-2.05.22-4.1.49-6.17.73-1.41.17-2.84.44-4.27.52-1.64.09-3.26.42-4.89.58-2.12.21-4.24.33-6.37.49-1.45.12-2.88.44-4.32.69-2.1.35-4.22.54-6.33.72a30.55,30.55,0,0,0-3.43.53c-.86.19-1.73.29-2.6.43-2,.33-4.14.22-6.18.65l-2.65.5a34.25,34.25,0,0,1-3.8.44,43.26,43.26,0,0,0-5.18.82,26.89,26.89,0,0,1-4.56.62,18.77,18.77,0,0,0-3.42.56c-1.26.29-2.51.44-3.77.68a30,30,0,0,1-3.42.37c-1.27.11-2.51.38-3.77.49-2.2.19-4.4.31-6.6.48a30.66,30.66,0,0,0-3.3.54,19.21,19.21,0,0,1-2.84.39,25.46,25.46,0,0,0-4.08.63,14.07,14.07,0,0,1-1.82.29c-2.35.19-4.72.33-7.07.55s-4.92.42-7.37.65c-1.51.13-3,.3-4.57.49a32.14,32.14,0,0,0-3.17.71,3.34,3.34,0,0,1-.7.14c-3.31.22-6.6.71-9.92.87a16.08,16.08,0,0,1-1.84.11,1.31,1.31,0,0,1-.43-2.54,3.74,3.74,0,0,1,1.14-.24c1.78-.17,3.56-.31,5.33-.51,2-.22,3.9-.43,5.85-.68,1-.12,1.9-.52,2.87-.66,2.19-.3,4.37-.59,6.57-.77,1.93-.16,3.87-.34,5.79-.54,1.29-.15,2.59-.29,3.89-.37a55.49,55.49,0,0,0,7.49-1,3.58,3.58,0,0,1,.87-.11,22.87,22.87,0,0,0,4.5-.61c1.47-.25,2.95-.43,4.43-.54,2.06-.19,4.14-.24,6.19-.51,1.26-.17,2.53-.34,3.78-.58.84-.16,1.69-.19,2.53-.28,1.09-.12,2.15-.39,3.21-.59a45.87,45.87,0,0,1,4.8-.7,43.34,43.34,0,0,0,4.65-.77c.73-.14,1.46-.26,2.2-.34,1.63-.21,3.27-.34,4.9-.55.9-.13,1.77-.39,2.67-.48,1.14-.12,2.29-.31,3.43-.4a58.37,58.37,0,0,0,6.46-.91c1.55-.31,3.11-.39,4.67-.57s2.85-.3,4.26-.59a44.14,44.14,0,0,1,5.85-.75c1.88-.12,3.75-.33,5.64-.51,1.4-.13,2.8-.22,4.19-.42,2.14-.32,4.27-.59,6.42-.84,1.71-.19,3.42-.49,5.14-.6a23.8,23.8,0,0,0,2.52-.33c1.65-.17,3.27-.47,4.91-.63,1.45-.15,2.89-.45,4.33-.63s3-.43,4.51-.49a15,15,0,0,0,1.73-.24c2.85-.39,5.71-.8,8.54-1.14,2.28-.27,4.47-.59,6.71-.93l6.3-1c2-.31,3.92-.67,5.89-.93,1.66-.21,3.3-.5,5-.74s3.08-.56,4.63-.81c2.18-.35,4.33-.76,6.5-1.14,1.47-.25,2.93-.49,4.39-.8,1.92-.4,3.86-.71,5.79-1.07,1.14-.21,2.18-.48,3.27-.66.79-.14,1.58-.22,2.35-.4,1.29-.31,2.6-.53,3.9-.79l4.21-.86,5.06-1.08c1.78-.4,3.57-.76,5.35-1.2,2.28-.55,4.47-1.14,6.71-1.73,1.77-.45,3.56-.8,5.31-1.29,1.43-.4,2.88-.74,4.29-1.14.86-.24,1.74-.46,2.62-.67,1.14-.27,2.21-.56,3.3-.86,1.89-.54,3.77-1,5.64-1.63s4.07-1.34,6.12-2l2.79-.87c1-.3,2-.62,2.94-.95a2.18,2.18,0,0,1,.86-.18c2.49-.53,4.77-1.7,7.2-2.41,1.67-.49,3.3-1.14,4.92-1.72a23.42,23.42,0,0,0,5.59-2.46,6.64,6.64,0,0,1,1.75-.71,22.51,22.51,0,0,1,2.41-.52c.39-.08,1-.2,1.14.34s-.43.82-.89.92-1.14.43-1.72.55a17.32,17.32,0,0,0-4,2,29,29,0,0,1-4.37,1.86c-1.45.49-2.74,1.31-4.17,1.77-1.15.37-2.29.89-3.43,1.31s-2.42.42-3.42,1.21a.43.43,0,0,1-.22.09c-1.65.23-3.08,1.14-4.65,1.55s-2.93,1.25-4.56,1.34a3.6,3.6,0,0,0-1.26.49c-1.93.9-4,1.26-6,2.13a4.33,4.33,0,0,1-1,.15c-1.14.17-2.11.83-3.24,1.05-.94.18-1.88.47-2.81.71a18.48,18.48,0,0,0-2.82.8,5,5,0,0,1-.94.17C2761.07,1200.26,2760.8,1200.23,2760.64,1200.51Z" transform="translate(0.5 0.45)"/><path class="cls-16" d="M2760.28,1200.32c0-.33.16-.53.48-.51a2.85,2.85,0,0,0,1.69-.42c.31-.19.74,0,1.09-.22a2.76,2.76,0,0,1,1.56-.35h.85c1.1-.64,2.35-.4,3.42-1a4.86,4.86,0,0,1,1.6-.65c.08,0,.14-.07.22-.07a8.65,8.65,0,0,0,3.1-.9,4.09,4.09,0,0,1,.49-.18,16.8,16.8,0,0,0,3.79-1.36,3.36,3.36,0,0,1,1.49-.35,1.63,1.63,0,0,0,1.1-.35,4.37,4.37,0,0,1,1.72-.57,6.64,6.64,0,0,0,2-.68,8.37,8.37,0,0,1,3-1,1.59,1.59,0,0,0,.63-.26,3.84,3.84,0,0,1,2.07-.68h.56c.87-.64,2.1-.45,2.92-1.22a.46.46,0,0,1,.26-.15,6.3,6.3,0,0,0,2.74-1,29.15,29.15,0,0,1,3-1.22,11.68,11.68,0,0,0,1.79-.84.89.89,0,0,1,.45-.15,5.16,5.16,0,0,0,2.69-1.38,6.17,6.17,0,0,1,2.23-1,1.92,1.92,0,0,0,.64-.24,1.94,1.94,0,0,1,1.31-.41.45.45,0,0,0,.23,0c.41-.09.84-.45.75-.68-.17-.43-.61-.27-.88-.2a17.34,17.34,0,0,0-2.48.52,5.53,5.53,0,0,0-1.94.89,5.27,5.27,0,0,1-1.87.92,21.89,21.89,0,0,0-2.58,1,3.31,3.31,0,0,1-1.22.4,4,4,0,0,0-1.3.5,10.21,10.21,0,0,0-1.85.74.45.45,0,0,1-.27.12,6.79,6.79,0,0,0-2.41.76,8.07,8.07,0,0,0-2.13.7,6.31,6.31,0,0,1-2,.76,4.06,4.06,0,0,1-1.39.12,3.86,3.86,0,0,1,1.69-.69c2.64-.89,5.28-1.77,7.87-2.78,1.45-.56,2.92-1.12,4.39-1.56a16.16,16.16,0,0,0,2.23-1,15.77,15.77,0,0,1,3.73-1.48c1-.25,2-.55,3-.78.34-.09.73-.09.86-.45a2.57,2.57,0,0,0,.27-1.49,3.08,3.08,0,0,0-2.55-2.31,3.2,3.2,0,0,1-2.47-2.23.77.77,0,0,0-.94-.56h0c-1.65.16-3.29.41-4.91.73-1.79.38-3.55.91-5.36,1.28s-3.34.72-5.1.94-3.42.57-5.13.93c-1.89.38-3.84.54-5.74.92a22.61,22.61,0,0,0-2.9.79,23.73,23.73,0,0,0-3.48,1.27,10.82,10.82,0,0,1-5.89,1.12,8.71,8.71,0,0,1-1.59-.36,1,1,0,0,1-.74-1.12c0-.45.38-.72,1-.81a37.52,37.52,0,0,1,4-.21c1.06-.08,2.11-.23,3.16-.41a1.72,1.72,0,0,0,1.11-2.08,3.15,3.15,0,0,0-2.49-2.39c-1.2-.31-2.42-.55-3.65-.74a26.41,26.41,0,0,1-2.92-.45,4.13,4.13,0,0,0-1.11-.08h-13a23.06,23.06,0,0,1-4.31-.42,19.93,19.93,0,0,0-2.68-.26,7.84,7.84,0,0,1-3.58-.86,3.43,3.43,0,0,0-1-.25,47.9,47.9,0,0,0-7.07-.65,44.35,44.35,0,0,1-6.2-.43,22.6,22.6,0,0,0-2.59-.21c-2.62-.18-5.25-.38-7.89-.34h-11.47s-6.43,0-9.65,0c-1.81,0-3.61.14-5.41.35a22.35,22.35,0,0,0-4.16.63,2.32,2.32,0,0,1-.63.11c-.46,0-.71-.14-.68-.58a.57.57,0,0,0-.35-.61,4.87,4.87,0,0,0-2.49-.72,16.59,16.59,0,0,0-4.49.5,42.13,42.13,0,0,0-7.28,2.69,3.83,3.83,0,0,1-3.24.06,7.82,7.82,0,0,0-3.58-.49c-.7,0-1.38.06-2.07,0a12.8,12.8,0,0,0-2.13.27c-1.45.16-2.89.38-4.33.61a31.2,31.2,0,0,0-4.21,1.14c-.58.2-1.14.4-1.73.57a2.6,2.6,0,0,1-.56.07.74.74,0,0,1-.85-.43.85.85,0,0,1,.22-1,15.45,15.45,0,0,1,1.45-1.23l.39-.29a.53.53,0,0,0,.2-.64c-.11-.21-.32-.12-.51-.14a8.62,8.62,0,0,0-2.19.34,34.32,34.32,0,0,0-3.75.69c-1.45.37-2.89.83-4.34,1.26-2.07.62-4.19,1.07-6.29,1.61-1.3.33-2.63.57-3.93.95a14.87,14.87,0,0,1-5.06.37,3.21,3.21,0,0,1-2-1,1.6,1.6,0,0,1-.21-1.85,9.33,9.33,0,0,1,1.14-1.72c.37-.47.74-1,1.14-1.46a1.63,1.63,0,0,0,.18-.43c.13-.45,0-.55-.41-.44l-2.84.77c-1.91.51-3.83,1-5.71,1.54-1.49.42-3,.86-4.46,1.37a25.9,25.9,0,0,1-3.2,1.14,26.65,26.65,0,0,0-4.16,1.55c-1.2.46-2.46.78-3.71,1.14-2.09.57-4.19,1.14-6.26,1.79a2.56,2.56,0,0,1-1.94-.11,1.36,1.36,0,0,1-.87-1.69,1.38,1.38,0,0,1,.3-.51,2.4,2.4,0,0,1,.39-.39,9.18,9.18,0,0,1,3.42-1.81,19.54,19.54,0,0,0,3.56-1.33l4.57-2.12a33.37,33.37,0,0,0,6.65-3.72,34.06,34.06,0,0,1,3.51-2.16,7.72,7.72,0,0,0,1.37-1,2,2,0,0,0-1,.2c-2.34.74-4.56,1.68-7,2.28l-5.42,1.48c-2.79.77-5.52,1.67-8.25,2.6a4.33,4.33,0,0,1-1,.24,11.4,11.4,0,0,0-3.68,1.22,41.61,41.61,0,0,1-5.28,2.13,26.74,26.74,0,0,0-6.48,3,13.65,13.65,0,0,1-3.2,1.59c-1.42.51-2.7,1.35-4.07,2a8.75,8.75,0,0,1-4,.81,4.28,4.28,0,0,1-1.45-.35c-.53-.19-.78-.72-.78-1.52-1.56.77-3.2,1.22-4.68,2.13-2,1.2-4,2.46-5.93,3.71a15.49,15.49,0,0,0-1.54,1.27,24.8,24.8,0,0,1-5.49,3.49,17.51,17.51,0,0,1-3.11,1.35,11.55,11.55,0,0,1-4.08.56,7,7,0,0,0-4.9,1.74,3.76,3.76,0,0,1-.81.5,1.13,1.13,0,0,1-1.31-.23,1.14,1.14,0,0,1-.07-1.34,4,4,0,0,1,1.73-1.59,59.67,59.67,0,0,0,7.29-3.86c2-1.32,3.9-2.68,5.82-4,1.28-.91,2.52-1.86,3.8-2.77,2.11-1.52,4.13-3.16,6.15-4.78,1.67-1.33,3.35-2.62,5.06-3.87,2.72-2,5.43-4.08,8.14-6.12,2.14-1.62,4.27-3.23,6.39-4.87a34.15,34.15,0,0,0,2.67-2.28c1.28-1.14,2.6-2.28,3.93-3.49.61-.55,1.22-1.11,1.81-1.68a4.39,4.39,0,0,0,1.28-3,1.14,1.14,0,0,0-.94-1.22,6,6,0,0,0-1.25-.22,56.13,56.13,0,0,0-7.1.29c-1.77.15-3.54.33-5.29.59a27.15,27.15,0,0,0-4.16,1c-1.14.36-2.18.81-3.27,1.14a31.9,31.9,0,0,0-3.94,1.71c-1.65.76-3.2,1.74-4.78,2.67a18.05,18.05,0,0,1-1.86,1.22,2.78,2.78,0,0,1-1.14.28,1.26,1.26,0,0,1-1.38-1.15.62.62,0,0,1,0-.13,2.93,2.93,0,0,1,.32-1.39,13.8,13.8,0,0,1,2.45-3.42l2-2.28a.81.81,0,0,1,.43-.34,1.34,1.34,0,0,1-.61,1.57,20.43,20.43,0,0,0-3.76,4.9c-.29.43-.55,1,0,1.45a1.4,1.4,0,0,0,1.63-.07,41,41,0,0,1,4.28-2.75c1.08-.65,2.28-1.14,3.36-1.8a2.13,2.13,0,0,1,.92-.24,2.08,2.08,0,0,0,1.14-.48,2.32,2.32,0,0,1,1.23-.51,3,3,0,0,0,1.23-.43,16.32,16.32,0,0,0-4,1.2c-1.33.57-2.61,1.28-4,1.78a6.79,6.79,0,0,0-1.14.58,1.8,1.8,0,0,1-1.05.31c-.31,0-.64-.06-.64-.45s.17-.61.61-.53l-.14.43a3.46,3.46,0,0,0,1.49-.59c1.35-.73,2.8-1.26,4.19-1.88,1.77-.8,3.64-1.29,5.45-1.92a32.58,32.58,0,0,1,3.62-.93c.47-.1,1-.09,1.42-.16a40.36,40.36,0,0,1,4.9-.55,62.09,62.09,0,0,1,6.68-.3,11,11,0,0,1,2.28.27,2.64,2.64,0,0,1,1.9,3.21.74.74,0,0,0,0,.14c-.16.5-.35,1-.5,1.49-.08.24-.14.54-.43.64-.29-.24-.15-.59-.21-.89a6.2,6.2,0,0,1-2.29,2.55,2.67,2.67,0,0,0-.36.31c-2.4,2.38-5,4.57-7.55,6.71-1.06.88-2.29,1.66-3.43,2.47a31.75,31.75,0,0,0-3.51,2.73c-.53.41-1.08.79-1.64,1.14-1.3,1-2.67,1.93-4,3-1.71,1.38-3.42,2.72-5.26,4-1.27.89-2.39,1.94-3.56,2.92s-2.57,1.85-3.78,2.89c-1,.84-2.21,1.46-3.26,2.28a7.27,7.27,0,0,0-1.62,1.41,1,1,0,0,1-.5.37,7.9,7.9,0,0,0-2.41,1.53,28.42,28.42,0,0,1-5,3c-1.38.65-2.72,1.43-4.13,2a3.15,3.15,0,0,0-1.14.94.5.5,0,0,0-.12.65c.17.27.42.19.64.07a4.24,4.24,0,0,0,1.14-.63,16.46,16.46,0,0,1,2.42-1.36.87.87,0,0,1,.84-.07,6.25,6.25,0,0,0,3.43-.12,5.81,5.81,0,0,0,1.87-.49c-.5-.12-1,.15-1.46.09s-.79,0-1-.41.16-.76.46-1c.58-.46,1.27-.74,1.84-1.23.08-.07.21-.11.27-.19.84-1.14,2.22-1.49,3.32-2.28a3.54,3.54,0,0,0,.74-.6,6.24,6.24,0,0,1,1.66-1.32,21,21,0,0,0,2.29-1.68c1.24-1,2.65-1.78,3.85-2.83a31.87,31.87,0,0,0,4.27-3.68,6.44,6.44,0,0,1,2-1.39,18.61,18.61,0,0,0,3-2.38,20.76,20.76,0,0,1,3-2.29c1.48-.86,2.64-2.08,4.05-3a22.06,22.06,0,0,0,2.83-2.28,32,32,0,0,1,2.66-2.28,41.35,41.35,0,0,0,5.06-4.75c1.14-1.24,2.5-2.21,3.59-3.5.19-.23.45-.48.82-.31a2.19,2.19,0,0,1-.82,1.24c-2.28,2.29-4.42,4.5-6.76,6.62-1.39,1.27-2.9,2.41-4.37,3.58-1.74,1.41-3.43,2.81-5.22,4.19-1.51,1.2-3.07,2.36-4.56,3.54-2.45,1.85-4.92,3.69-7.29,5.7-2.15,1.78-4.38,3.42-6.63,5.08q-2.37,1.71-4.78,3.42c-1.41,1-2.78,2-4.28,2.9a1.74,1.74,0,0,0-.69.63,2.07,2.07,0,0,0,1,0,8.46,8.46,0,0,0,2.5-.78,39.27,39.27,0,0,0,4.56-2.35,16.91,16.91,0,0,0,2.56-1.89,9.18,9.18,0,0,1,1.61-1.14c1.76-1.14,3.42-2.29,5.24-3.32a18.74,18.74,0,0,1,2.91-1.44,18.42,18.42,0,0,0,2.47-1.14,10.59,10.59,0,0,1,2.86-.85,5,5,0,0,0,1.52-.65,3.72,3.72,0,0,1,1.44-.66.73.73,0,0,1,.81.36.65.65,0,0,1-.18.79,1.76,1.76,0,0,1-1,.73,2.49,2.49,0,0,0-1.14.64,18.17,18.17,0,0,1-1.57,1.14,3.34,3.34,0,0,0,2.16-.16,13.07,13.07,0,0,0,2.53-1.14,24.36,24.36,0,0,1,3.28-1.41,13.29,13.29,0,0,0,2.85-1.54,11.59,11.59,0,0,1,2.35-1.14,32.21,32.21,0,0,1,4.28-1.68,38,38,0,0,0,5.45-2.14,9.46,9.46,0,0,1,2.64-.84,21.69,21.69,0,0,0,3.34-1c1.56-.48,3.11-1,4.69-1.46,2-.56,4-1,6-1.59s4.24-1.27,6.33-2l4.23-1.6a1.83,1.83,0,0,1,.46-.12c.74-.09,1.14.24,1.07,1a2.62,2.62,0,0,1-1.36,2q-2.28,1.62-4.65,3.21c-.71.48-1.25,1.14-2,1.62a43.9,43.9,0,0,1-4.78,2.68c-1.42.71-2.85,1.39-4.28,2.09-.21.1-.39.24-.69.42a5.09,5.09,0,0,0,2.29-.23,12.74,12.74,0,0,0,3-1.14,13.61,13.61,0,0,1,3.12-.91,15.33,15.33,0,0,0,2.28-.78,27.23,27.23,0,0,1,2.78-.89c1.45-.4,2.89-.86,4.36-1.2.9-.21,1.79-.45,2.68-.68,1.3-.38,2.62-.69,3.95-.94a7.3,7.3,0,0,1,1.14-.09.75.75,0,0,1,.78.71v0a3,3,0,0,1-.4,1.91c-.55.88-1.14,1.72-1.76,2.56-.22.29-.59.6-.34,1a1.27,1.27,0,0,0,1.14.51,18.63,18.63,0,0,0,4.83-.33c2.36-.61,4.74-1.14,7.1-1.66,2.11-.51,4.17-1.2,6.27-1.73a22.41,22.41,0,0,1,4-.78,7.53,7.53,0,0,0,1.64-.3,7.74,7.74,0,0,1,2-.19,1.24,1.24,0,0,1,1.36,1.07,1.28,1.28,0,0,1-.06.55,9.68,9.68,0,0,1-.27.94,2.41,2.41,0,0,0,1.43-.19,43.58,43.58,0,0,1,5.32-1,42.55,42.55,0,0,1,5.47-.09h1.6a7.84,7.84,0,0,1,2.92.29,2.43,2.43,0,0,0,2,0c1.51-.63,3-1.33,4.56-1.92.86-.33,1.78-.49,2.66-.78a15.65,15.65,0,0,1,4.07-.6,6.68,6.68,0,0,1,4.77,1.14,1.93,1.93,0,0,0,1.81.3,32.32,32.32,0,0,1,3.56-.42c1.32-.16,2.65,0,4-.2a72.23,72.23,0,0,1,8.45-.27c6.85-.06,13.69-.13,20.45.07a20.92,20.92,0,0,1,4,.48,7,7,0,0,0,1.51.08c2.4,0,4.79.25,7.19.23.78,0,1.55.3,2.35.34a9.87,9.87,0,0,1,3.2.86,10.91,10.91,0,0,0,3.06.47,24.57,24.57,0,0,1,3.42.42,4.54,4.54,0,0,0,1.76-.49h12.12a39.28,39.28,0,0,1,6.93.74,23.42,23.42,0,0,1,2.77.56,4.8,4.8,0,0,1,3.47,2.66,5.12,5.12,0,0,1,.36,1.81c0,.6,0,.62.59.48l3.12-.78.1,0c2-.28,4.06-.43,6-.82a29.27,29.27,0,0,0,3.07-.62,8.79,8.79,0,0,1,1.68-.22c1.3-.12,2.56-.37,3.83-.58s2.57-.55,3.85-.84,2.31-.49,3.47-.77,2.16-.43,3.24-.64a11.81,11.81,0,0,1,3.46-.12,1.16,1.16,0,0,1,1,.92,2.81,2.81,0,0,0,2.13,2,4.38,4.38,0,0,1,3,2.31,4.25,4.25,0,0,1,.13,3.3,2.63,2.63,0,0,1-1.92,1.47c-1.59.5-3.16,1-4.68,1.68-1.06.45-2,1.08-3,1.6-1.34.69-2.73,1.26-4.11,1.83-1.84.75-3.67,1.53-5.51,2.25-1,.41-2.08.72-3.11,1.16-2.11.83-4.27,1.57-6.43,2.31-1,.33-2,.61-3,.94-2.51.89-5,1.77-7.53,2.58-.79.25-1.58.46-2.37.68-1.59.44-3.07,1-4.63,1.31l-2.63.69c-1.16.29-2.4.59-3.59.9A4,4,0,0,1,2760.28,1200.32Z" transform="translate(0.5 0.45)"/><path class="cls-17" d="M2323.39,1181.27a8,8,0,0,0-2.28.71c-1.08.36-2.13.82-3.18,1.25-.29.13-.57.3-.85.43a11,11,0,0,1-2,.74,12.61,12.61,0,0,0-2.44.92,34.89,34.89,0,0,1-5.82,1.86,23.63,23.63,0,0,0-3.07,1c-1.36.54-2.77.9-4.16,1.31s-2.7.7-4,1-2.43.5-3.67.7a12,12,0,0,1-2.68.24,4.77,4.77,0,0,1-1-.24,1,1,0,0,1-.69-.89.94.94,0,0,1,.61-1c1.7-.55,3.42-1.23,5.22-.25.09.06.23.07.27.14.36.75,1,.46,1.49.31,1.45-.41,2.94-.7,4.38-1.14,2-.57,3.94-1.21,5.86-2a21.61,21.61,0,0,1,3-.81,29.76,29.76,0,0,0,4.56-1.61,16.41,16.41,0,0,1,1.94-.66,8,8,0,0,0,1.63-.62c1.53-.75,3.14-1.27,4.71-1.9,2.09-.83,4.24-1.53,6.29-2.42a8.9,8.9,0,0,0,1.64-1.14c2.58-1.83,5.07-3.77,7.68-5.55a61.07,61.07,0,0,1,7.31-4.33c2.87-1.39,5.71-2.85,8.57-4.21a8.23,8.23,0,0,1,2.28-.88,1.38,1.38,0,0,1,1.25.38.9.9,0,0,1,.21,1.25l-.12.14a10,10,0,0,1-1.58,1.46,46.22,46.22,0,0,1-5.53,3.42c-2.54,1.37-5.12,2.67-7.67,4s-5,2.52-7.5,3.78a14.35,14.35,0,0,0-2.28,1.67c-1.78,1.3-3.43,2.71-5.26,4a52,52,0,0,1-4.72,3.24,2.09,2.09,0,0,0-.72.6c.08.24.27.2.4.16,1.59-.61,3.15-1.25,4.68-2a25,25,0,0,1,4.57-1.8,23.72,23.72,0,0,0,3-1.2c1.38-.56,2.73-1.14,4.09-1.75a58.47,58.47,0,0,0,6.2-3.06c1.08-.62,2.22-1.14,3.34-1.66s2-1,3-1.42c2.29-.89,4.37-2.17,6.62-3.13s4.19-2,6.27-3.08l4.09-2.11c2-1,4-2.14,6.07-3.14,3-1.47,5.82-3.27,8.79-4.81,3.58-1.86,7-4,10.44-6.08,1.66-1,3.42-2,5-3.08,3.16-2.1,6.27-4.27,9.4-6.39,2.8-1.9,5.53-3.86,8.29-5.79,2.5-1.74,5-3.51,7.42-5.34,2-1.47,3.9-3,5.83-4.56,1.61-1.25,3.22-2.52,4.85-3.75.8-.62,1.53-1.31,2.29-2,3.18-2.85,6.16-5.91,9.26-8.85a44.65,44.65,0,0,1,5.65-4.41,10.16,10.16,0,0,1,1.9-1.27c.46-.19.92-.43,1.38-.57a11.2,11.2,0,0,0,2.64-1.47c.3-.18.58-.38.88-.54a.6.6,0,0,1,.8.09c.25.24.11.48,0,.72a4.5,4.5,0,0,1-1.15,1.42c-2.45,2-4.71,4.29-7.19,6.3-2.29,1.82-4.47,3.69-6.64,5.58-1.51,1.3-3,2.6-4.57,3.82-2.45,1.9-4.88,3.82-7.33,5.71-2.11,1.65-4.18,3.36-6.29,5-1.7,1.31-3.42,2.61-5.17,3.85-2.94,2.08-5.83,4.23-8.74,6.36-1.9,1.4-3.87,2.72-5.7,4.13s-3.43,2.62-5.19,3.94c-1,.78-2.15,1.45-3.18,2.29s-2.13,1.56-3.17,2.38-2.28,1.69-3.36,2.53c-1.52,1.14-3.07,2.28-4.57,3.43-1.27,1-2.63,1.88-3.92,2.86-.9.7-1.78,1.44-2.73,2.06s-2.09,1.45-3.1,2.22c-2.08,1.56-4.27,3-6.29,4.56-.76.62-1.49,1.28-2.28,1.92a4.58,4.58,0,0,1-.43.34,1.14,1.14,0,0,1-1.61-.14l0,0a1.29,1.29,0,0,1,0-1.62,3.83,3.83,0,0,1,.29-.28,70.57,70.57,0,0,1,6.7-5.24c1.4-1,2.77-2.06,4.18-3s3-2.28,4.57-3.42c2.84-2,5.49-4.18,8.22-6.29a.16.16,0,0,1,.08-.13c.08-.06-.26-.11-.38,0-2.14,1.14-4.24,2.39-6.39,3.53-2.35,1.24-4.57,2.64-6.95,3.87-1.94,1-3.9,2-5.84,3-3,1.6-6.08,3.21-9.13,4.78-2,1-4.15,2-6.24,3l-4.28,2.09c-1.72.82-3.42,1.62-5.15,2.48s-3,1.77-4.56,2.5l-4.56,2.08-4,1.77a12.86,12.86,0,0,1-1.56.6,13.94,13.94,0,0,0-3.28,1.39c-2.21,1.2-4.5,2.28-6.85,3.32a6.73,6.73,0,0,1-2.88.78,1.56,1.56,0,0,1-.92-.2,1.29,1.29,0,0,1-.53-1.72,9.17,9.17,0,0,1,1.72-2.29,14.4,14.4,0,0,1,3.58-2.87A7.48,7.48,0,0,0,2323.39,1181.27Z" transform="translate(0.5 0.45)"/><path class="cls-17" d="M2384.47,1102.73a12.09,12.09,0,0,1-2.28,1.2q-4.56,2.28-9.05,4.68c-3.42,1.87-6.69,4.08-10,6.16-3.57,2.28-7,4.67-10.5,7-2.64,1.76-5.17,3.69-7.73,5.59-1.77,1.3-3.56,2.59-5.29,3.93s-3.69,3-5.51,4.44q-2.41,1.95-4.8,3.92c-1.61,1.32-3.19,2.66-4.81,3.95-3,2.4-5.7,5.16-8.59,7.69l-.43.36a1.26,1.26,0,0,1-1.73-.2,1.21,1.21,0,0,1,.12-1.53c.67-.67,1.38-1.31,2.09-2,1.58-1.45,3.16-2.91,4.77-4.33,1.28-1.15,2.62-2.29,3.94-3.34,1.63-1.35,3.28-2.69,4.91-4.06,2.1-1.74,4.2-3.48,6.35-5.17,1.48-1.14,2.91-2.38,4.44-3.42,2.18-1.56,4.28-3.24,6.43-4.83,1.41-1,2.82-2.06,4.27-3,3-2.06,6-4.22,9.13-6.14,2.91-1.79,5.71-3.81,8.67-5.48,2.59-1.43,5.18-2.88,7.84-4.2,2.09-1,4.16-2.06,6.31-3a5.59,5.59,0,0,1,1.49-.51,29.24,29.24,0,0,0,4.65-2.06,17.47,17.47,0,0,1,3-1,27.54,27.54,0,0,0,4.21-1.36,13,13,0,0,1,3.49-.7.49.49,0,0,1,.24,0c.32.09.76.1.75.56s-.41.45-.73.44a9.1,9.1,0,0,0-4.68,1.53,12.8,12.8,0,0,1-3,1,6.77,6.77,0,0,0-1.84.67c-1.14.71-2.47,1.15-3.58,1.91C2386.18,1102,2385.2,1102.15,2384.47,1102.73Z" transform="translate(0.5 0.45)"/><path class="cls-18" d="M2553.07,1153.8c-.26.14-.58.3-.43.64s.48.16.73.15c.53,0,.88-.47,1.34-.68.26-.12.49-.32.79-.27a1,1,0,0,0,.65-.27,3.55,3.55,0,0,1,1.09-.65,29.8,29.8,0,0,0,3-1.25,2.36,2.36,0,0,1,.91-.24.55.55,0,0,0,.5-.19,1.06,1.06,0,0,1,.79-.3,3.29,3.29,0,0,0,1.42-.26c-.12.48-.33.66-.6.74a4.16,4.16,0,0,1-1.3.34,1.51,1.51,0,0,0-1.14.52,1.35,1.35,0,0,1-.9.43,4.35,4.35,0,0,0-1.74.63,6.08,6.08,0,0,1-2.39,1.14.44.44,0,0,0-.22.1,27.23,27.23,0,0,1-2.58,1.69,19.76,19.76,0,0,0-2,1.32,1.48,1.48,0,0,1-1.53.11.78.78,0,0,1-.59-.93.74.74,0,0,1,0-.14,1.88,1.88,0,0,1,.48-1.07,2.42,2.42,0,0,0,.44-.56c.5-.73.66-1.69,1.5-2.18a3.72,3.72,0,0,1,1.43-1.66,3.81,3.81,0,0,0,1-1.39.86.86,0,0,0,0-.32,2.63,2.63,0,0,1,.68-1,47.79,47.79,0,0,1,6.51-6.21c1.74-1.33,3.34-2.85,5-4.28s3.1-2.57,4.67-3.84c2.14-1.74,4.3-3.46,6.46-5.17,1.24-1,2.5-1.88,3.72-2.85.86-.69,1.7-1.37,2.49-2.12,2-1.87,4.07-3.57,6.08-5.39,1.67-1.49,3.33-3,5-4.41,1.14-1,2.39-1.88,3.49-2.9a27.8,27.8,0,0,1,3.73-2.84c1.32-.86,2.56-1.81,3.93-2.57,1.71-1,3.27-2.16,5.05-3a2.51,2.51,0,0,0,.69-.65c.28-.29.44-.22.67.11a2.48,2.48,0,0,1-.58,2.5,23.93,23.93,0,0,1-3.66,2.92c-2.29,1.45-4.57,2.9-6.85,4.41a25.41,25.41,0,0,0-2.08,1.73c-2.08,1.63-4.05,3.42-6,5.17-1.65,1.43-3.25,2.9-4.9,4.32-2.75,2.42-5.45,4.9-8.39,7.09-2.29,1.71-4.57,3.52-6.74,5.33-1.52,1.24-3.08,2.44-4.56,3.69-1,.88-2,1.85-3,2.73-1.37,1.14-2.79,2.28-4.18,3.42a47.38,47.38,0,0,0-5.78,5.9A23.43,23.43,0,0,1,2553.07,1153.8Z" transform="translate(0.5 0.45)"/><path class="cls-19" d="M2276.58,1188.61a20,20,0,0,1,2.38-1.72c2.12-1.56,4.28-3.05,6.41-4.57,1.4-1,2.83-2,4.27-2.91s2.85-1.93,4.27-2.91c3.11-2.19,6.26-4.33,9.33-6.59a46.79,46.79,0,0,1,4.73-2.9c1.15-.66,2.18-1.51,3.31-2.19,1.54-.94,3.14-1.78,4.69-2.68,1.79-1,3.56-2.1,5.34-3.14l5.51-3.17a8.67,8.67,0,0,1,2-1.08,22.9,22.9,0,0,0,4.56-2.29.83.83,0,0,1,1.14-.06c.4.4,0,.73-.16,1a7.86,7.86,0,0,1-2.88,2.55c-.95.51-1.76,1.26-2.74,1.75-1.49.74-2.92,1.62-4.34,2.47s-3.22,1.83-4.78,2.84a37.52,37.52,0,0,1-3.54,2.29,9.64,9.64,0,0,0-1.62,1.14c-1.26.94-2.66,1.62-4,2.45a35.14,35.14,0,0,1-3.83,2.28c-.57.27-.93.79-1.48,1.07a36,36,0,0,0-4.76,3c-1.6,1.2-3.35,2.12-5,3.27a47.53,47.53,0,0,1-5.4,3.62c-1.14.61-1.84,1.71-3.05,2.17-1.71.64-2.77,2.18-4.28,3.12s-2.77,2-4.24,2.92-2.95,1.73-4.48,2.51a11.48,11.48,0,0,0-4.66,3.61,4.94,4.94,0,0,1-1.07,1.07,1.27,1.27,0,0,1-1.8,0,.88.88,0,0,1-.07-1.24,15.26,15.26,0,0,1,3.91-3.9c1.26-.72,2.41-1.61,3.74-2.23A5.9,5.9,0,0,0,2276.58,1188.61Z" transform="translate(0.5 0.45)"/><path class="cls-20" d="M2277,1188.17a1.11,1.11,0,0,1-1.05,1c-.14,0-.28,0-.36.12-.57.73-1.57.72-2.27,1.28-1.21,1-2.73,1.53-3.88,2.59-.49.44-.88,1-1.4,1.39a.59.59,0,0,0-.25.4.89.89,0,0,1-.51.74c-.45.31-.56.7-.36,1.06a.9.9,0,0,0,1.13.44,1.5,1.5,0,0,0,.81-.46,11.16,11.16,0,0,0,1.24-1.42,2.82,2.82,0,0,1,.94-.91c.46-.29.87-.66,1.3-1s.61-.19.82-.39c.8-.81,1.94-1,2.82-1.67a1.7,1.7,0,0,1,.45-.15,2,2,0,0,0,1.13-.7c.27-.32.45-.58.95-.51a1.29,1.29,0,0,0,.73-.45,3.86,3.86,0,0,1,1-.75,5,5,0,0,0,1.59-1.2c0-.06.1-.15.17-.16,1.06-.18,1.54-1.26,2.51-1.62a2.28,2.28,0,0,0,.88-.89,1.62,1.62,0,0,1,.91-.72c.8-.24,1.41-.83,2.17-1.13.24-.08.28-.3.33-.5a.83.83,0,0,1,.8-.66,2.8,2.8,0,0,0,1.61-.86,7.74,7.74,0,0,1,1.42-1,4.57,4.57,0,0,0,1.68-1.24c.08-.14.17-.28.34-.3a5.81,5.81,0,0,0,1.68-1,15.88,15.88,0,0,1,2.13-1.29,3.84,3.84,0,0,0,1.52-1.13,2.52,2.52,0,0,1,.81-.6,10.88,10.88,0,0,0,2.3-1.57,2.47,2.47,0,0,1,.67-.38,5.88,5.88,0,0,0,2.33-1.56l.11-.08a30,30,0,0,0,3.19-1.88l.78-.39a5.12,5.12,0,0,0,1.46-.91,2.2,2.2,0,0,1,1.35-.74c.35,0,.65-.32.92-.58a3.37,3.37,0,0,1,.53-.47,3.38,3.38,0,0,0,1.41-1,.65.65,0,0,1,.39-.24,2.31,2.31,0,0,0,1.14-.56c1.13-.85,2.39-1.5,3.57-2.27a11.88,11.88,0,0,1,2.26-1.26l0,0a8.55,8.55,0,0,1,2.94-1.79,2.48,2.48,0,0,0,1-.71.53.53,0,0,1,.29-.26,11.86,11.86,0,0,0,2.6-1.28h.07c.92-1.07,2.4-1.35,3.31-2.41.4-.46.74-1,1.14-1.45a.32.32,0,0,0,0-.37.35.35,0,0,0-.41-.17,1.74,1.74,0,0,0-.65.26,11.43,11.43,0,0,1-3.05,1.61c-.5.21-.95.61-1.55.46.12-.28.41-.32.63-.45,1-.57,2.12-1,3.2-1.52a1.25,1.25,0,0,0,.41-.22,3.66,3.66,0,0,1,1.63-.88,5.53,5.53,0,0,0,1.66-1q5.65-4,11.2-8.1c2.57-1.89,5.17-3.73,7.73-5.66,1.94-1.45,3.85-3,5.77-4.42s4-3,5.93-4.61c1.13-.9,2.26-1.86,3.32-2.81l5.75-5c1.89-1.66,3.84-3.62,5.79-5.4,2.27-2.07,4.45-4.27,6.89-6.16,2-1.53,3.86-3.18,5.84-4.71a33.59,33.59,0,0,0,6.17-6.21l.12-.09c.05,0,.07.07.09.07H2401c-.16-.5-.29-.62-.9-.6a6,6,0,0,0-2.27.41c-1.64.7-3.26,1.42-4.94,2a15.19,15.19,0,0,1-1.59.47,7.53,7.53,0,0,0-1.93.84,46.24,46.24,0,0,1-4.73,2.35,3.31,3.31,0,0,1-.45.12,2.08,2.08,0,0,1,1.13-.85,3.32,3.32,0,0,0,1.45-.76,1.72,1.72,0,0,1,1-.53,3.07,3.07,0,0,0,.87-.38c.65-.36,1.31-.71,2-1a13.81,13.81,0,0,1,2.45-.73,15.42,15.42,0,0,0,3-1.36,13.26,13.26,0,0,0,1.72-.77.79.79,0,0,1,.76-.07,2.46,2.46,0,0,0,1.32,0,.38.38,0,0,0,.31-.33c0-.19-.19-.2-.35-.25a1.69,1.69,0,0,0-1.13,0,10.7,10.7,0,0,1-1.77.22,17.6,17.6,0,0,0-2.2.81c-.32.12-.64.21-1,.3a8,8,0,0,0-1.35.39c-.73.27-1.51.43-2.27.64a5,5,0,0,0-1.13.37,4.46,4.46,0,0,1-1.52.65.78.78,0,0,0-.43.2,10.94,10.94,0,0,1-2.07,1.13,1.88,1.88,0,0,1-1,.1c.1-.22.32-.27.51-.35,1.44-.65,2.9-1.25,4.28-2a14.39,14.39,0,0,1,3.33-1,22.63,22.63,0,0,0,3.4-1.14,12.17,12.17,0,0,1,3.8-1,3,3,0,0,1,2.08.59,1.34,1.34,0,0,1,.56,1.82,1.14,1.14,0,0,1-.15.23,3.57,3.57,0,0,1-.46.64c-1.31,1.37-2.51,2.86-3.93,4.13s-2.62,2.18-4,3.25c-.62.48-1.22,1-1.84,1.5-4.61,3.63-8.8,7.7-13.07,11.69q-3.72,3.5-7.62,6.8c-1.61,1.36-3.24,2.7-4.87,4q-1.71,1.35-3.4,2.64c-2.27,1.77-4.6,3.53-6.93,5.26-1.51,1.13-3.08,2.21-4.61,3.32-1.82,1.31-3.63,2.64-5.41,4-2.32,1.74-4.68,3.4-7,5.1-1.13.81-2.26,1.59-3.39,2.37a2,2,0,0,0-.65.58,9.26,9.26,0,0,1-3.33,3.07c-2.27,1.45-4.62,2.84-7,4.19-1.35.78-2.73,1.48-4.05,2.27-1.62,1-3.2,2-4.77,3.09-2.51,1.66-5.09,3.17-7.63,4.78s-5.16,3.25-7.7,4.94c-1.66,1.13-3.4,2.16-5,3.27-1.13.73-2.15,1.52-3.24,2.27-1.9,1.31-3.83,2.6-5.73,3.93s-4.05,2.94-6.11,4.36a55.68,55.68,0,0,1-6.34,3.69,11.65,11.65,0,0,0-4,3.24,4.91,4.91,0,0,1-1.56,1.45,1.22,1.22,0,0,1-1.46-.09,1.14,1.14,0,0,1-.35-1.43,3.26,3.26,0,0,1,.95-1.34,23.61,23.61,0,0,0,1.7-1.76,18.71,18.71,0,0,1,4.76-3.21c.92-.46,1.81-1,2.7-1.48A.8.8,0,0,1,2277,1188.17Z" transform="translate(0.5 0.45)"/><path class="cls-1" d="M2452.87,1174a3,3,0,0,1,.27-1.29,12.35,12.35,0,0,1,3.07-5.71,14.56,14.56,0,0,1,5.07-3.33,14.77,14.77,0,0,1,3.73-.67c1.37-.13,2.76,0,4.14-.17a8.92,8.92,0,0,1,1.86.08,1.13,1.13,0,0,1,.83.67.3.3,0,0,1,0,.36,3.93,3.93,0,0,1-.44.55,36.22,36.22,0,0,1-3.43,2.75c-3.16,2.09-6.11,4.47-9.43,6.32-1.14.64-2.35,1.21-3.42,1.91a1.54,1.54,0,0,1-2.08-.66A1.52,1.52,0,0,1,2452.87,1174Z" transform="translate(0.5 0.45)"/><path class="cls-1" d="M2531.63,1128.23l-.19.16c-.11.12-.24.24-.41.17s-.12-.19,0-.32h0a2.67,2.67,0,0,1,.47-.48h0a7.84,7.84,0,0,1,1-1,183.5,183.5,0,0,1,14.72-13.43c.21.26,0,.34-.07.44-2.4,2.48-4.82,4.94-7.38,7.25-1.81,1.61-3.56,3.26-5.34,4.89-.57.51-1.14,1-1.75,1.5C2532.22,1127.66,2532,1128.05,2531.63,1128.23Z" transform="translate(0.5 0.45)"/><path class="cls-1" d="M2450.93,1173v1a3.22,3.22,0,0,0,1,2.43c.56.62.55.67-.24,1a6.62,6.62,0,0,1-2.77.58c-.6,0-.79-.24-.71-.86a4.44,4.44,0,0,1,.75-2A8.89,8.89,0,0,1,2450.93,1173Z" transform="translate(0.5 0.45)"/><path class="cls-1" d="M2531,1128.24c0,.43.3.11.45.16-.08.36-.44.42-.68.63-.58.52-1.22,1-1.84,1.51a.18.18,0,0,1-.2,0A15.42,15.42,0,0,1,2531,1128.24Z" transform="translate(0.5 0.45)"/><path class="cls-1" d="M2532.41,1126.81a2.31,2.31,0,0,1-1,1A1.64,1.64,0,0,1,2532.41,1126.81Z" transform="translate(0.5 0.45)"/><path class="cls-1" d="M2531.63,1128.23a1.7,1.7,0,0,1,1-.77C2532.33,1127.8,2532.12,1128.17,2531.63,1128.23Z" transform="translate(0.5 0.45)"/><path class="cls-1" d="M2531.48,1127.76a.67.67,0,0,1-.47.48A.52.52,0,0,1,2531.48,1127.76Z" transform="translate(0.5 0.45)"/><path class="cls-18" d="M2584,1153.66a2.82,2.82,0,0,0-1.34,1.14,8.53,8.53,0,0,1-1.59,1.53,12.86,12.86,0,0,0-1.7,1.76c-.75.89-1.67,1.55-2.45,2.39a36.71,36.71,0,0,1-3.49,3,22.39,22.39,0,0,1-3.25,2.65.82.82,0,0,0-.2.12c-.68,1-1.84,1.4-2.73,2.14a3.52,3.52,0,0,0-.6.62,1.36,1.36,0,0,1-1.09.71,1.37,1.37,0,0,0-.9.6,2.83,2.83,0,0,1-.88.77,15.72,15.72,0,0,0-2.92,2.28,13,13,0,0,1-1.39,1.05,10.19,10.19,0,0,0-2.36,1.59,22.77,22.77,0,0,1-3.43,3c-.77.63-1.58,1.22-2.36,1.85-.4.33-.88.51-1.26.82a3.64,3.64,0,0,0-1,.83c-.23.34-.72.41-1.06.65s-.54.26-.7.61a1.49,1.49,0,0,1-1,.67,2.19,2.19,0,0,0-1.14.82,3.32,3.32,0,0,1-1.21,1c-.58.29-1,.83-1.73.89a.62.62,0,0,0-.46.29c-.44.82-1.34,1.14-1.95,1.74a.63.63,0,0,1-.4.25c-.52,0-.76.44-1.06.76s-.13.64.28.68a2.43,2.43,0,0,0,1.41-.12.84.84,0,0,1,1,.13c-.39.29-.62.82-1.26.52-.22-.1-.5.06-.67.18a1.73,1.73,0,0,1-1.15.26c-.63,0-1.25.23-1.89.17a1.34,1.34,0,0,1-.91-.22.44.44,0,0,0-.53-.06c-.67.49-1.51.66-2.14,1.14-.42.33-.89.57-1.33.86a3.84,3.84,0,0,1-.35.18.61.61,0,0,1-.85-.12v0c-.19-.22,0-.75.16-1a8.5,8.5,0,0,1,3-1.87,3.74,3.74,0,0,0,.62-.34c.44-.32.87-.72,1.49-.56.21,0,.33-.16.48-.26,1.23-.81,2.49-1.58,3.79-2.28a6.23,6.23,0,0,0,1.46-1.15,3.23,3.23,0,0,1,1.47-.91,1.54,1.54,0,0,0,1-.77,3.4,3.4,0,0,1,1.23-1c.57-.37,1.05-.87,1.62-1.25.34-.22.67-.45,1-.64s1-.43,1.3-1c.82-.37,1.31-1.24,2.22-1.5a.5.5,0,0,0,.46-.3c.19-.57.72-.75,1.14-1a11.17,11.17,0,0,0,1.51-1.41,2.36,2.36,0,0,1,1-.71,1.75,1.75,0,0,0,.71-.49,14,14,0,0,1,2.46-1.87,2.59,2.59,0,0,0,1.14-1c.21-.39.68-.48,1-.72a29,29,0,0,1,2.63-1.92c.6-.35,1.06-1,1.69-1.32a31.81,31.81,0,0,0,3-2.28,16.64,16.64,0,0,1,2.76-2,3.87,3.87,0,0,0,1.14-1.14c.21-.18.36-.4.73-.4s.52-.24.73-.42c1.14-.88,2.14-1.82,3.17-2.75.86-.78,1.78-1.49,2.57-2.28a1.8,1.8,0,0,1,.77-.54,1.75,1.75,0,0,0,.73-.72,3.18,3.18,0,0,1,1.3-1.14.46.46,0,0,0,.34-.19c.41-.7,1.21-1.14,1.41-2a.47.47,0,0,1,.06-.15c.09-.13.1-.41.38-.29s.17.24.11.41a3,3,0,0,0-.06.95Z" transform="translate(0.5 0.45)"/><path class="cls-18" d="M2566.72,1149.85c-.06.26-.26.29-.48.29s-.36,0-.33-.22.24-.25.43-.25S2566.66,1149.65,2566.72,1149.85Z" transform="translate(0.5 0.45)"/><path class="cls-15" d="M2812.33,1181.48a.53.53,0,0,1-.5.27.2.2,0,0,1-.2-.2c0-.21.31-.4.53-.34A.26.26,0,0,1,2812.33,1181.48Z" transform="translate(0.5 0.45)"/><path class="cls-18" d="M2581.35,1148.85c-.11,0-.23,0-.24-.13s.18-.23.32-.27a.16.16,0,0,1,.19.12v.06C2581.61,1148.79,2581.51,1148.85,2581.35,1148.85Z" transform="translate(0.5 0.45)"/><path class="cls-1" d="M2341.12,1171.87a143.68,143.68,0,0,1,12.86-7.4C2352.93,1165.89,2344.69,1170.65,2341.12,1171.87Z" transform="translate(0.5 0.45)"/><path class="cls-1" d="M2452.75,1107.08c-2.08,1.86-4.41,3.42-6.59,5.17a.18.18,0,0,1-.2-.08A42.07,42.07,0,0,1,2452.75,1107.08Z" transform="translate(0.5 0.45)"/><path class="cls-17" d="M2401.87,1097.08c.15,0,.19-.3.38-.13s.08.31-.08.37-.25-.1-.3-.25Z" transform="translate(0.5 0.45)"/><path class="cls-2" d="M2161,1169.37" transform="translate(0.5 0.45)"/><path class="cls-2" d="M2961,1169.37" transform="translate(0.5 0.45)"/><path class="cls-2" d="M2961,1169.37" transform="translate(0.5 0.45)"/><path class="cls-11" d="M2931.66,1166.92" transform="translate(0.5 0.45)"/><path class="cls-11" d="M2931.66,1166.92" transform="translate(0.5 0.45)"/><text x="0.5" y="0.45"/><path class="cls-21" d="M755.79,885.84c9.45-19,17.26-35.36,25.7-51.43Q839.3,724.49,897.4,614.7c.29-.58.63-1.15,1-1.69,2.49-4.06,4.62-10.3,10.49-6.93,2.36,1.35,3.33,8,2.5,11.59-4.35,18.66-9.09,37.25-14.42,55.64-37.17,128.32-79.69,254.82-129.56,378.8a57.25,57.25,0,0,0-3.55,17.89c-2.57,49.92,5.09,98.16,21.59,145.53,9.75,27.79,15.6,57,22.22,85.82,3.9,17.55,12,30.79,27.89,40.1a265.44,265.44,0,0,1,39,27.3c38.13,32.79,48.61,82.21,27.31,128.33-6.36,13.66-15.41,26.3-23.29,39.32-7.62,12.58-15.91,25.36-14.2,40.59,1.15,10.22,4.1,21.61,10.07,29.61,9.59,12.83,22.33,23.4,33.8,34.73,2.51,2.52,5.71,4.43,7.91,7.16,4.69,5.85,5.86,12.44,1.55,19s-10.87,7.8-18,5.26a45,45,0,0,1-11.37-5.42c-27.13-19.87-48.4-44.15-57-77.7-1.14-4.39-2.42-8.76-3.91-13.07-3.33-10.1-9.26-17.55-20-20.94-6.49-1.95-12.71-4.92-19.13-7.22-53.52-19.29-64.79-70.21-60.11-107.27a120,120,0,0,1,27.3-61.65c22.16-27,28.34-56.13,17.21-89.19-8.49-25.18-15.82-50.71-25-75.67-6.57-17.77-19.85-31.21-34.75-42.52a12.34,12.34,0,0,0-10.24-.92c-36.49,14.49-67.21,36.69-89.29,69.65-10.28,15.37-20.38,30.91-29.6,46.94-16,27.76-12.37,57.54-8.25,87.48,1.81,13.08,1.22,26.48,2.16,39.71.23,3.47,1.13,7.8,3.37,10.06,7.08,7.12,6.46,14.49,2.17,22.23-3.9,7-8.27,13.09-18.28,11.12-2.71-.53-6.86,2.36-9.24,4.78-23.62,24.07-51.67,39.51-85.48,42.24a84.89,84.89,0,0,1-88.76-108.48c13.86-48.33,43.41-83,92.11-99.23,16-5.34,32.3-9.89,48.53-14.53a61.56,61.56,0,0,0,33.15-22.72c45.19-59.6,90.19-119.32,117-190.22a68.81,68.81,0,0,0,4.76-20.54c3.9-79.51,5.4-159.22,11.86-238.54,6.12-75.39,17.3-150.36,26.58-225.47.41-3.35,4.06-6.29,6.19-9.42,2.32,3.3,6.35,6.42,6.69,9.91q9.61,97.51,18.39,195c2.94,32.67,5.32,65.41,8,98.12C754.65,880.44,755,881.61,755.79,885.84ZM827,762.25l-4.78,8.15c-2.35,3.9-5,7.49-7,11.49Q786.91,838,759,894.29a25.68,25.68,0,0,0-2.24,12.13c1.15,22.06,2.71,44.08,4.17,66.14.8,12.05,1.68,24.12,2.73,39L777,997.31c-4.84,14.86-8.88,27.3-12.9,39.63a14.92,14.92,0,0,0,5.15-7.38c26.64-73.86,53.4-147.7,79.73-221.67,5.17-14.57,8.6-29.75,12.86-44.65a51,51,0,0,0,3.9-7.56c8.32-27.31,16.69-54.61,24.65-81.92,5.28-18.16,9.91-36.49,15.23-56.27-2.4,1.47-3.18,1.68-3.45,2.15Q864.52,690.91,827,762.25ZM746.7,1406.76c8.25-11.47,17.16-22.54,24.55-34.54,6.22-10.1,12.19-20.83,15.6-32.08,5.52-18.43-1-36.55-4.58-54.61-11.88-60.89-38.42-112.13-93.34-145.42-2.65-1.6-4.33-7-4.25-10.55q1.7-82.82,4.13-165.64c.33-11.36,1.35-22.67,2-34,3.9,15.27,3,32.49,20.67,40.51L721,977.2c-22.6,4.93-22.21,4.95-23,25.8-.55,14.51-2.87,29-3.44,43.49-.25,6.22.39,13.36,3.28,18.67,6.4,11.82,13.79,23.4,25.73,30.79a69.66,69.66,0,0,1,7.54,6.38l-.85,1-13.93-7.43a78.29,78.29,0,0,0,15.27,14.88c14.38,11,14.71,10.88,20.36-6.3.28-.82.57-1.66,1.47-4.35,1.19,19,2.2,34.95,3.27,51.84-14-23.41-34.28-36.28-60.46-44.86,1,18,7.65,29.47,19.31,38.54,26,20.22,46,44.86,55.25,77.1,5.86,20.59,13.54,40.82,17.73,61.74a411.86,411.86,0,0,1,6.73,62.65c.59,13.36-5.85,24.71-16,34.27-16.09,15.27-27.75,33.56-32,55.72-9.14,47.39,7.63,93,63.2,100.21,19,2.44,29.87,13.26,33.37,32.61,6.37,35.3,24.59,63.15,55,82.69a53.82,53.82,0,0,1,7.06,6.52c-.67.91-1.31,2-2,2.77-4.65-2.4-9.76-4.2-13.85-7.3-26.23-19.87-44.74-44.86-51.61-77.8-3.08-14.78-11.1-26.46-26.74-30.52-24.38-6.34-46.36-16.4-62.41-37.06a47.31,47.31,0,0,0,8.27,12.37c12.37,13.34,28.55,20.28,45.35,25.61,18.56,5.85,29.41,18.06,33.42,36.8,7,32.65,27.13,56.31,52.55,76.06a42.08,42.08,0,0,0,14.84,6.87c2.44.66,7.06-.92,8.25-2.93a12.12,12.12,0,0,0,.21-9.75c-1.32-3-4.74-5.13-7.25-7.6-11.12-10.87-23-21.09-33.16-32.71-13.65-15.45-18.35-33.86-10.7-53.54,4.75-12.29,11.4-23.85,17.68-35.48,5.39-10,12.31-19.21,17.07-29.47,21.32-46.1,10.4-93.4-29-125.25a259.12,259.12,0,0,0-33.78-23c-17.69-10.11-26.88-24.91-31.44-44.53-7.49-32.24-15.49-64.36-25.51-96C763.94,1168.59,757,1130,757.21,1090c.19-30.23-.22-60.46-.74-90.67,0-3.28-1.84-8.14-4.31-9.5-13.07-7.14-26.62-13.42-40-20-14.07-11.14-16.84-26-16.82-43.24,0-84.69,9-168.69,17.24-252.77,1.08-11,2.72-21.86,4.1-32.8a229.7,229.7,0,0,1,1.44,32.86c-.11,9.11-.52,18.22-.66,27.3,0,3.55.47,7.14.41,10.71a29.58,29.58,0,0,1-1.15,5.44c0,2-2.15,3.9-2.13,5.85,0,1.51,2.87,3,4.47,4.47l-5,1.35,4.83,3.9-6.74,1,6.37,3.28L714,738.79l4.74,4.15-8,.53,7.22,3.47-5,1.77,5.5,3.9-6,1.62,7.49,3.2-7.94.8,6.28,4.33-7.65,1,10.3,4.61h-9.75l6.05,4.13-6.07,1.5,8.76,4.2-10.67-.53,7.8,4.62-7,1.41,9.75,4.33H708.92l8.38,4.27-8.48,1.17L720.35,798H708.9l7.12,3.9L708.61,803l9.75,4.47H707l13.07,5.3H708.22l9.4,4.45-10.85.53,12.13,4.48-.23.88L705.89,822l11.18,4.66-8,1.81,9.46,3.57-9.75,6.57,9,3.14-9.26,6.67,8.35,3.14-9.48,6.66,10.22,3.53-9.17,1.58,13.44,5-17.2-2-.34,1.64,11.59,3.47-6.46,2L721,878.37l-18.47-2,13,5.09-7.28,1.7,9.76,4.1-7,1.3,3.57,3.08-8.58,1,12.17,4.56-8,.86,2.85,3.49-8.79,1.07L718,906.79l-9.64,1.83,11.71,3.9-.18.78-13.79-1.42-.23,1.19,11.29,3.59-9,1.7,10.43,3.9-.13,2.26-13.93,2.42,6,3.74-7.8,1.25,9.51,4.37-4.68,2,9.34,3.24-9.2,6.43,10.14,3.9-6.67,1.84,9.75,3.9-7.62,1.64,11,4.07-9.5,1.48,38,14.3,3.06-2.81L724.11,593h-3.9c-.84,7.21-1.64,14.45-2.53,21.67-6.48,51.54-15.61,102.92-18.9,154.68-7.63,119.63-12.35,239.46-18.49,359.2-.39,7.8,2,12.3,8.5,16.63,35.75,23.7,65.28,52.66,76.9,95.8,3.46,12.86,6.26,26,10.81,38.42,14.84,40.71,8.52,77.06-20.09,109.81-4.29,4.9-6.36,11.7-9.46,17.67-12.27,16.5-12.54,35.73-12.75,54.92,1.11-5,.78-10.22,1.95-15.13,3.14-13.36,7-26.61,10.55-39.91ZM676,1084l-2.44-1c-1.95,3.9-3.61,8.09-5.72,12-16.22,29.94-31.06,60.77-49.24,89.48-17.17,27.09-38,51.84-56.93,77.84a71.84,71.84,0,0,1-40.1,27.58c-16.85,4.76-33.78,9.48-50.28,15.33-41,14.47-66.59,44.17-81.06,84s-2.87,76.67,31.21,98c26.52,16.64,54.26,15.16,82.2,3.65,22-9.07,41-22.35,55.45-42.13,7.8,5.08,13.85,4.39,18.38-3.72,4.27-7.69,3.23-13.4-4.51-18a6.66,6.66,0,0,1-2.52-5.48c4.76-24-1.79-47.24-4-70.74-1.76-18.41-1.6-36.9,6.34-53.62,26.5-55.7,60.79-104.56,120.92-129.07,2.75-1.13,5.26-2.79,8.27-4.41-13.48-12.48-43-9.75-54.61,4.84-31.38,39.37-63.66,78-88.55,122.19-4.58,8.13-11.12,13.47-20.48,14.9-11.88,1.83-23.83,3.22-35.63,5.38-33.94,6.26-63.95,19.72-84.84,48.76-22.65,31.42-35.52,74.64-1.95,114.8a28.66,28.66,0,0,1,2.22,5.34c-23.75-18.59-33.15-41.35-28.73-68.36,7-41.68,28-75.11,66.65-94,19.66-9.59,41.25-15.6,62.41-21.61,20.28-5.85,36.59-16.11,48.5-33.6,7.49-11,15-22.06,23.41-32.38a554.53,554.53,0,0,0,81.74-134.42c1.36-3.84,2.63-7.74,3.92-11.56Z" transform="translate(0.5 0.45)"/><path class="cls-22" d="M712,969.75c13.38,6.57,26.93,12.85,40,20,2.48,1.36,4.25,6.22,4.31,9.5.53,30.21.94,60.46.74,90.67-.25,40,6.73,78.64,18.86,116.81,10,31.51,18,63.71,25.51,96,4.57,19.62,13.66,34.43,31.44,44.53a258.45,258.45,0,0,1,33.78,23c39.42,31.85,50.34,79.15,29,125.26-4.75,10.25-11.7,19.5-17.06,29.46-6.28,11.71-12.93,23.19-17.69,35.48-7.65,19.68-2.89,38.09,10.71,53.54,10.22,11.7,22.07,21.84,33.15,32.71,2.52,2.47,5.85,4.58,7.26,7.6a12.16,12.16,0,0,1-.22,9.75c-1.19,2-5.85,3.59-8.25,2.93a42.16,42.16,0,0,1-14.84-6.87c-25.35-19.85-45.56-43.51-52.54-76.06-4-18.74-14.86-30.93-33.43-36.8-16.79-5.33-33-12.27-45.35-25.61a47.31,47.31,0,0,1-8.27-12.37c16.11,20.7,38.1,30.76,62.42,37.06,15.6,4.06,23.65,15.74,26.74,30.52,6.86,33,25.35,57.93,51.6,77.8,4.1,3.1,9.21,4.9,13.85,7.3.64-.92,1.29-2,2-2.77a53.19,53.19,0,0,0-7.06-6.52c-30.45-19.5-48.76-47.39-55-82.69-3.49-19.35-14.41-30.17-33.37-32.61-55.57-7.16-72.34-52.82-63.19-100.21,4.27-22.16,15.93-40.45,32-55.72,10.09-9.56,16.6-20.91,16-34.27a414.29,414.29,0,0,0-6.73-62.64c-4.2-20.93-11.86-41.16-17.73-61.75-9.23-32.34-29.26-56.87-55.26-77.1-11.7-9.07-18.31-20.54-19.3-38.54,26.27,8.62,46.53,21.45,60.46,44.86-1.08-16.89-2.09-32.86-3.28-51.84-.9,2.69-1.19,3.53-1.46,4.35-5.66,17.18-6,17.34-20.36,6.3a78.34,78.34,0,0,1-15.28-14.88l13.93,7.43.86-1a68.56,68.56,0,0,0-7.55-6.37c-11.94-7.49-19.33-19-25.72-30.8-2.89-5.31-3.53-12.44-3.28-18.67.56-14.53,2.89-29,3.43-43.49.8-20.85.41-20.87,23-25.8l-9.54-6.77Zm179.43,491.72c-2.36,24.52-16.15,42.67-32.84,59.64,7.29-3.9,14.29-8,19.66-13.65,27.3-28.89,29.25-83.67,4-114.31-10.36-12.58-23.72-20-40.51-20.09,16,7.41,31.75,15,39.92,32q-4.8-4.65-9.58-9.33a67.67,67.67,0,0,0-79.3-11.7c-38.2,20-55.15,72.05-36.29,111.44,13.24,27.66,38.26,40.34,68.26,33.69,28.38-6.28,47.82-23.68,59.41-50.11,2.42-5.91,4.74-11.76,7.17-17.61ZM696.79,1052c.19,13.38,10.59,24,23.23,23.74a24.7,24.7,0,0,0,23.7-25.64V1050c-.25-13.65-10.33-23.91-23.17-23.69-13.44.25-24,11.72-23.83,25.7Zm30.35-61.8c5,5.44,9.75,10,13.9,15.17s7.55,10.65,11.7,16.66c0-8.62.92-16.54-.39-24.07-.64-3.61-5.52-6.48-8.48-9.75l-1.81,1.67c1.34,2.19,2.69,4.39,5.5,9Zm4.5,153.65,31.48,35.38c-2.61-16-3.26-16.7-31.56-35.38Zm139.14,384.47c-10.24,11.06-17.22,21.1-16.27,35.57,5.23-11.62,10.18-22.45,16.19-35.57Zm-39.14-176.62L808.23,1333c1.33,10.06,9,16.33,23.33,18.7Z" transform="translate(0.5 0.45)"/><path class="cls-22" d="M711.49,970.33c-17.73-8-16.77-25.24-20.67-40.51-.7,11.34-1.72,22.65-2,34q-2.31,82.83-4.14,165.64c0,3.57,1.6,9,4.26,10.55,54.92,33.3,81.46,84.53,93.34,145.42,3.55,18.16,10.1,36.28,4.58,54.61-3.37,11.26-9.34,22-15.6,32.09-7.39,12-16.3,23.07-24.55,34.54l.19.15c3.1-5.85,5.17-12.77,9.46-17.67,28.61-32.75,34.93-69.1,20.09-109.8-4.55-12.47-7.35-25.57-10.81-38.43-11.7-43.18-41.15-72.16-76.9-95.8-6.49-4.33-8.89-8.87-8.5-16.63,6.14-119.74,10.86-239.57,18.49-359.2,3.29-51.76,12.42-103.13,18.9-154.68.89-7.22,1.69-14.45,2.53-21.67h3.9l32,383.32-3.06,2.81-38-14.3,9.5-1.48-11-4.07,7.63-1.64-9.75-3.9,6.67-1.84-10.15-3.9,9.21-6.43-9.34-3.24,4.68-1.95L703,932l7.8-1.25-6-3.74,13.92-2.42.14-2.26-10.44-3.9,9-1.7L706,913.09l.24-1.19,13.79,1.42.17-.78-11.7-3.9,9.63-1.83-13.65-4.08,8.8-1.07-2.85-3.49,8-.86-12.17-4.56,8.58-1-3.57-3.08,7-1.3-9.75-4.1,7.27-1.7-13-5.09,18.47,1.95-11.53-4.89,6.45-2-11.58-3.47.33-1.64,17.2,1.95-13.43-5,9.16-1.58-10.22-3.53,9.48-6.66-8.35-3.14,9.27-6.67-9-3.14,9.75-6.57-9.46-3.57,8-1.81L706.09,822l12.78,1.11.23-.88L707,817.78l10.84-.53-9.4-4.45h11.82l-13.07-5.3h11.39L708.8,803l7.41-1.09-7.12-3.9h11.45L709,793.3l8.48-1.17-8.39-4.27H720l-9.76-4.33,7-1.41-7.8-4.62,10.66.53-8.75-4.2,6.06-1.5-6-4.13h9.75l-10.3-4.6,7.65-1-6.28-4.33,7.93-.8-7.49-3.2,6-1.62-5.5-3.9,5-1.77-7.21-3.47,8-.53-4.73-4.15,4.58-1.62-6.38-3.28,6.75-1-4.84-3.9,5-1.35c-1.6-1.48-4.45-3-4.47-4.47,0-1.95,2.2-3.9,2.13-5.85a30.43,30.43,0,0,0,1.15-5.44c0-3.57-.47-7.16-.41-10.71.13-9.12.54-18.23.66-27.3A231.16,231.16,0,0,0,716.88,641c-1.39,10.94-3,21.84-4.1,32.8-8.29,84.08-17.16,168.08-17.24,252.77,0,17.26,2.75,32.1,16.81,43.24Zm30.68-57.28,1.47-.12V888.09l2.16,4.23,2-.41-8.31-42.54h-1.19Zm8.15,31.71a131.83,131.83,0,0,0-4.44,12.66c-1.35,5.42-1,10.57,6.75,13.65C751.75,961.13,751,952.29,750.32,944.76Zm-20.08-257-2.17.14q1.41,21.89,2.79,43.77l1.58-.12q-1.19-21.89-2.2-43.79Z" transform="translate(0.5 0.45)"/><path class="cls-22" d="M676,1084c-1.37,3.9-2.56,7.8-4.16,11.47a554.59,554.59,0,0,1-81.74,134.42c-8.4,10.31-15.91,21.45-23.4,32.37-11.92,17.55-28.22,27.81-48.51,33.61-21.16,6.06-42.75,12-62.41,21.61-38.65,18.88-59.64,52.3-66.64,94-4.53,27,5,49.78,28.73,68.36a28,28,0,0,0-2.23-5.34c-33.52-40.16-20.65-83.38,1.95-114.8,20.89-28.94,50.91-42.4,84.85-48.76,11.7-2.16,23.75-3.55,35.63-5.38,9.36-1.42,15.89-6.77,20.48-14.9,24.88-44.08,57.16-82.81,88.54-122.19,11.71-14.67,41.21-17.32,54.61-4.84a93,93,0,0,1-8.27,4.41c-60,24.52-94.34,73.37-120.92,129.08-7.94,16.71-8.09,35.1-6.34,53.61,2.25,23.4,8.8,46.81,4,70.74a6.64,6.64,0,0,0,2.52,5.48c7.8,4.62,8.77,10.34,4.5,18-4.52,8.12-10.55,8.8-18.37,3.73-14.55,19.77-33.45,33.15-55.45,42.12-27.95,11.51-55.68,13-82.21-3.64-34-21.34-45.75-57.85-31.2-98s40.19-69.57,81-84c16.5-5.85,33.43-10.57,50.28-15.33a71.84,71.84,0,0,0,40.1-27.58c18.92-26,39.77-50.71,56.93-77.84,18.18-28.7,33-59.54,49.25-89.48,2.11-3.9,3.9-8,5.72-12ZM468.11,1479.55c48.23.57,94.22-40.37,84.82-102.59-6.92-45.83-47.32-67.79-89.25-49.52-29.39,12.82-50,34.86-59.58,65.77-14.16,45.58,16.38,86.44,64,86.34Zm96.31-34.11c-.94-8.76-2.67-17.55-2.67-26.49,0-13.65,2.36-27.18,1.48-40.62-1.13-17.3-9.75-31.54-22.92-42.72,24.26,45.82,23.41,83.69-3.47,115.43-13.65,16.2-31.34,25.9-52,30.27a89,89,0,0,1-59.23-7.81c7.06,4.74,14.28,9.29,22.14,11.57,38.48,11.18,69.33-3,95.39-30.66,6.75-7,12-15.08,21.3-9ZM567.28,1295a59.9,59.9,0,0,0-7.5,46.38C562.25,1326,564.75,1310.59,567.28,1295Z" transform="translate(0.5 0.45)"/><path class="cls-22" d="M861.92,763.26c-4.25,14.9-7.68,30.08-12.85,44.65-26.33,74-53.09,147.81-79.73,221.67a15,15,0,0,1-5.15,7.38c4-12.39,8.06-24.77,12.89-39.63l-13.32,14.25c-1-14.9-2-27-2.73-39-1.46-22.06-3-44.08-4.17-66.14a25.68,25.68,0,0,1,2.24-12.13Q786.9,838,815.25,781.91c2-3.9,4.68-7.67,7-11.45.39,1.33.37,3.22,1.25,3.9,6,4,12.56,7.3,18.18,11.7,4.6,3.67,2.44,17.75-3.12,23.86-5.23,5.73-8.43-.69-12.31-2.44a74,74,0,0,1-7.06-4.23l-.78.93,20.64,24.65c1.95-6,4.31-13.65,7-21.27,5.24-14.77,10.69-29.43,16-44.14ZM767.27,884.42,806,923.29l7.33-20.23a104.08,104.08,0,0,1-39-33.33c-2.66,5.46-5.45,11.26-7.08,14.69Zm7.26,27.42-.49.78c7.8,11,15.78,21.9,23.91,33.16,1.27-3.53,2.52-7.08,3.42-9.58Zm-10.2.33-2.19,2.19,24.75,27.71,2.21-2Z" transform="translate(0.5 0.45)"/><path class="cls-22" d="M827,762.25q37.54-71.37,75.09-142.67c.27-.47,1.06-.68,3.45-2.14-5.32,19.77-9.94,38.1-15.23,56.26-8,27.31-16.32,54.61-24.65,81.92a50.13,50.13,0,0,1-3.9,7.57l.19.11c-.25-1.54-.52-3.08-1-5.65-2.64,4.42-4.68,8-6.89,11.52-3,4.8-6.94,7-11.93,3-4.37-3.49-8.31-7.49-12.58-11.1C829.35,760.81,827.91,761.82,827,762.25Zm62.41-96.88-2.12-1.13q-5.17,17.7-10.34,35.38l2.3.65q5.18-17.44,10.24-34.9Z" transform="translate(0.5 0.45)"/><path class="cls-23" d="M827,762.25c.92-.43,2.36-1.44,2.69-1.15,4.28,3.61,8.22,7.6,12.58,11.1,5,4,8.94,1.85,11.94-3,2.2-3.51,4.25-7.1,6.89-11.53.42,2.58.7,4.12.95,5.66-5.36,14.71-10.8,29.37-16,44.14-2.69,7.56-5,15.25-7,21.27l-20.64-24.57.78-.94a72.09,72.09,0,0,0,7.06,4.24c3.9,1.75,7.08,8.17,12.31,2.43,5.56-6.1,7.8-20.18,3.12-23.85-5.62-4.46-12.19-7.8-18.18-11.7-.87-.6-.85-2.5-1.24-3.9Z" transform="translate(0.5 0.45)"/><path class="cls-22" d="M746.7,1406.76c-3.59,13.3-7.41,26.55-10.61,40-1.17,4.91-.84,10.18-2,15.13.21-19.19.48-38.42,12.75-54.92Z" transform="translate(0.5 0.45)"/><path class="cls-23" d="M891.37,1461.49c-2.43,5.85-4.75,11.7-7.29,17.55-11.58,26.43-31,43.83-59.41,50.11-30,6.65-55-6-68.26-33.68-18.86-39.4-1.95-91.46,36.3-111.45a67.67,67.67,0,0,1,79.3,11.7q4.75,4.68,9.57,9.33l-.35-.35c9.6,17.92,11.51,37.17,9.75,57Zm-136.52,3.59c1.62,6,3.35,17.71,7.9,28.24,10.39,24,33.53,35.11,59.15,30.07,36.71-7.27,63.92-41.89,63.37-80.64a60.75,60.75,0,0,0-91.88-51.67c-25.77,15.27-36.79,39.2-38.58,74Z" transform="translate(0.5 0.45)"/><path class="cls-23" d="M881.62,1405.11c-8.17-17.07-23.93-24.64-39.92-32,16.79,0,30.15,7.51,40.51,20.09,25.24,30.64,23.4,85.43-4,114.31-5.36,5.68-12.37,9.75-19.66,13.65,16.7-17,30.48-35.1,32.84-59.64l-.27.31c5-20.42,2.91-39.65-9.75-57Z" transform="translate(0.5 0.45)"/><path class="cls-23" d="M696.71,1052c-.21-14,10.39-25.47,23.76-25.7,12.83-.22,22.91,10.1,23.17,23.69a24.69,24.69,0,0,1-23.6,25.74h-.1C707.3,1076,696.9,1065.39,696.71,1052Zm10.67,13c5.62-7.35,10-13.14,14.41-18.94l2.24,2-10.45,20.44c11.51,2.7,18.16-1.73,22.06-10.18,3.57-7.8,2.48-15.48-4.08-21.45s-13.65-5.85-20.59-1c-7.9,5.44-9.23,12.67-3.59,29.23Z" transform="translate(0.5 0.45)"/><path class="cls-23" d="M727.06,990.21,747.52,999c-2.81-4.62-4.16-6.82-5.5-9l1.81-1.67c3,3.19,7.8,6.06,8.48,9.75,1.31,7.53.39,15.44.39,24.06-4.19-6-7.64-11.58-11.7-16.65S732.09,995.65,727.06,990.21Z" transform="translate(0.5 0.45)"/><path class="cls-23" d="M731.56,1143.86c28.3,18.68,28.91,19.34,31.48,35.37Z" transform="translate(0.5 0.45)"/><path class="cls-23" d="M870.7,1528.33c-6,13.14-11,24-16.27,35.57C853.48,1549.43,860.46,1539.39,870.7,1528.33Z" transform="translate(0.5 0.45)"/><path class="cls-23" d="M831.56,1351.7c-14.34-2.37-22-8.64-23.41-18.7Z" transform="translate(0.5 0.45)"/><path class="cls-23" d="M742.17,913.05l-3.9-63.64h1.19L747.77,892l-1.95.41-2.17-4.24V913Z" transform="translate(0.5 0.45)"/><path class="cls-23" d="M750.32,944.76c.67,7.53,1.43,16.37,2.31,26.29-7.81-3.06-8.1-8.21-6.75-13.65A132.42,132.42,0,0,1,750.32,944.76Z" transform="translate(0.5 0.45)"/><path class="cls-23" d="M730.24,687.78q1.11,21.88,2.2,43.79l-1.58.12q-1.41-21.88-2.79-43.77Z" transform="translate(0.5 0.45)"/><path class="cls-23" d="M468.11,1479.55c-47.63,0-78.21-40.76-64-86.34,9.61-30.91,30.19-53,59.58-65.77,41.93-18.27,82.33,3.69,89.25,49.52C562.33,1439.18,516.34,1480.12,468.11,1479.55ZM547.88,1392c0-2.28.12-4.54,0-6.81-2.44-42.38-37.86-67.87-76.42-53.94-30.46,11-51.53,32.63-61.2,63.58-13.53,43.31,16,80.61,61.36,78.73,43.14-1.77,76-36.9,76.3-81.56Z" transform="translate(0.5 0.45)"/><path class="cls-23" d="M564.42,1445.44c-9.27-6.11-14.59,2-21.3,9-26.06,27.62-56.91,41.83-95.39,30.66-7.8-2.28-15.08-6.83-22.14-11.57a89,89,0,0,0,59.23,7.8c20.68-4.37,38.31-14.06,52-30.27,26.82-31.73,27.73-69.6,3.47-115.42,13.22,11.18,21.79,25.36,22.92,42.71.87,13.44-1.5,27.08-1.49,40.63C561.74,1427.83,563.52,1436.68,564.42,1445.44Z" transform="translate(0.5 0.45)"/><path class="cls-23" d="M567.28,1295q-3.79,23.4-7.5,46.38A59.9,59.9,0,0,1,567.28,1295Z" transform="translate(0.5 0.45)"/><path class="cls-23" d="M767.2,884.42c1.63-3.43,4.42-9.23,7.08-14.69a104.08,104.08,0,0,0,39,33.33L806,923.29Z" transform="translate(0.5 0.45)"/><path class="cls-23" d="M774.45,911.84l26.84,24.4c-.9,2.5-2.15,6-3.42,9.58-8.13-11.3-16-22.24-23.91-33.16Z" transform="translate(0.5 0.45)"/><path class="cls-23" d="M764.25,912.17,789,940.06l-2.2,2L762.07,914.3Z" transform="translate(0.5 0.45)"/><path class="cls-23" d="M889.48,665.37q-5.07,17.45-10.16,34.9l-2.3-.65q5.18-17.67,10.34-35.38Z" transform="translate(0.5 0.45)"/><path class="cls-22" d="M754.81,1465.06c1.7-34.81,12.81-58.71,38.54-74a60.76,60.76,0,0,1,91.88,51.67c.55,38.75-26.66,73.37-63.37,80.64-25.62,5.08-48.76-6.06-59.15-30.07C758.17,1482.77,756.43,1471.05,754.81,1465.06Z" transform="translate(0.5 0.45)"/><path class="cls-22" d="M881.27,1404.75c12.74,17.38,14.84,36.61,9.75,57C892.78,1442,890.87,1422.68,881.27,1404.75Z" transform="translate(0.5 0.45)"/><path class="cls-22" d="M707.38,1065c-5.64-16.56-4.31-23.79,3.59-29.25,7-4.8,14.25-4.65,20.59,1s7.65,13.65,4.08,21.45c-3.9,8.45-10.55,12.88-22.06,10.18L724,1048l-2.24-2C717.38,1051.92,713,1057.77,707.38,1065ZM720,1037c-10.48-.29-17,8-13.36,18.9Z" transform="translate(0.5 0.45)"/><path class="cls-22" d="M547.92,1392c-.22,44.66-33.16,79.79-76.28,81.56-45.35,2-74.9-35.42-61.36-78.73,9.75-31,30.74-52.66,61.2-63.58,38.56-13.93,74,11.56,76.42,53.94C547.92,1387.38,547.92,1389.7,547.92,1392Z" transform="translate(0.5 0.45)"/><path class="cls-23" d="M720,1037l-13.36,18.9C703,1045,709.56,1036.72,720,1037Z" transform="translate(0.5 0.45)"/></svg>